
<svg xmlns="http://www.w3.org/2000/svg" viewBox="0 0 250 50" width="120" height="24">
  <path d="M25 0C11.2 0 0 11.2 0 25s11.2 25 25 25 25-11.2 25-25S38.8 0 25 0zm0 40c-8.3 0-15-6.7-15-15s6.7-15 15-15 15 6.7 15 15-6.7 15-15 15z" fill="#1A73E8"/>
  <path d="M90.7 34.9h-9.2V15.1h9.2c9.5 0 15.7 4.4 15.7 9.9s-6.2 9.9-15.7 9.9zm0-15.5h-4.4v11.2h4.4c6.1 0 10.7-2.4 10.7-5.6s-4.6-5.6-10.7-5.6zM125.5 15.1l-9.6 19.8h-1.5l-9.6-19.8h5.1l5.3 11.5 5.3-11.5h5zM138.5 15.1c5.5 0 9.4 3.2 9.4 7.7 0 4.6-3.9 7.7-9.4 7.7h-5.9v4.4h-4.8V15.1h10.7zm-5.9 11.2h5.9c2.6 0 4.6-1.5 4.6-3.5s-1.9-3.5-4.6-3.5h-5.9v7zM149.9 15.1h4.8v19.8h-4.8V15.1zM177.2 15.1v4.2h-6.4v15.6H166V19.3h-6.4v-4.2h17.6zM195.2 31c-.8 2.6-3.2 4.2-6.4 4.2-4.6 0-7.7-3.1-7.7-7.3v-5.6c0-4.2 3.1-7.3 7.7-7.3 3.2 0 5.6 1.7 6.4 4.2l-3.9 1.5c-.4-1.2-1.3-1.9-2.6-1.9-1.9 0-3.1 1.2-3.1 3.5v5.6c0 2.3 1.2 3.5 3.1 3.5 1.3 0 2.3-.7 2.6-1.9l3.9 1.5zM210.9 27.9c0 4.2-3.1 7.3-7.7 7.3s-7.7-3.1-7.7-7.3v-5.6c0-4.2 3.1-7.3 7.7-7.3s7.7 3.1 7.7 7.3v5.6zm-10.8 0c0 2.3 1.2 3.5 3.1 3.5s3.1-1.2 3.1-3.5v-5.6c0-2.3-1.2-3.5-3.1-3.5s-3.1 1.2-3.1 3.5v5.6z" fill="#1A73E8"/>
</svg>
