
<svg xmlns="http://www.w3.org/2000/svg" viewBox="0 0 115 35" width="115" height="35">
  <path d="M73.42 0H57.5v11.67h15.92V0z" fill="#4285F4"/>
  <path d="M57.5 17.5H73.4v11.67H57.5V17.5z" fill="#EA4335"/>
  <path d="M42.42 0H26.5v11.67h15.92V0z" fill="#FBBC05"/>
  <path d="M42.42 17.5H26.5v11.67h15.92V17.5z" fill="#34A853"/>
  <path d="M26.5 26.25H10.58V14.58H26.5" fill="#4285F4"/>
  <path d="M10.58 8.75H26.5V20.4H10.58" fill="#EA4335"/>
  <path d="M114.54 20.8c0 7.8-5.66 14.2-13.73 14.2-8.07 0-13.73-6.4-13.73-14.2S92.73 6.6 100.8 6.6c8.08 0 13.74 6.4 13.74 14.2zm-6.15 0c0-5.26-3.21-8.85-7.58-8.85s-7.58 3.6-7.58 8.85 3.2 8.85 7.58 8.85 7.58-3.59 7.58-8.85zM10.58 29.17c0 3.47-2.97 5.83-6.86 5.83C.45 35-.66 31.9.37 29.53l3.9-11C5.15 15.44 7.9 14.13 11 14.13c3.55 0 6.44 2.36 6.44 6 0 2.97-1.43 5.08-3.91 6.16 1.45.83 2.2 1.78 2.2 2.88h-5.15zm-5.31-1.24c0-.53-.37-.95-1.15-1.4-.78-.47-1.7-.77-2.73-.94.42 1.3 1.32 2.34 2.55 2.34.76 0 1.33-.4 1.33-.82v.82zM89.15 7.6l-4.92 18.65c-.82 3.16-3.68 8.75-10.94 8.75-5.66 0-9.63-3.1-9.63-7.83 0-5.8 4.94-9.52 13.23-9.52.92 0 2.3.08 2.87.23l1.23-4.67c-1.1-.3-2.63-.63-4.35-.63-9.07 0-18.96 6.78-18.96 16.92 0 7.35 5.5 12.33 14.3 12.33 10.52 0 16.02-7.2 17.93-14.9l3.77-14.34-.36-.55c-3.15 0-5.58.92-7.22 2.3l3.05-6.74z" fill="#231F20"/>
</svg>
